FILE "Samurai Spirits - Zankurou Musouken (1995)(SNK)(M3)[aka Samurai Shodown III].img" BINARY
  TRACK 01 MODE1/2352
    FLAGS DCP
    INDEX 01 00:00:00
  TRACK 02 AUDIO
    PREGAP 00:02:00
    FLAGS DCP
    INDEX 00 04:28:03
    INDEX 01 04:29:03
  TRACK 03 AUDIO
    FLAGS DCP
    INDEX 01 05:05:14
  TRACK 04 AUDIO
    FLAGS DCP
    INDEX 01 08:11:00
  TRACK 05 AUDIO
    FLAGS DCP
    INDEX 01 11:16:41
  TRACK 06 AUDIO
    FLAGS DCP
    INDEX 01 11:40:43
  TRACK 07 AUDIO
    FLAGS DCP
    INDEX 01 11:56:69
  TRACK 08 AUDIO
    FLAGS DCP
    INDEX 01 14:59:42
  TRACK 09 AUDIO
    FLAGS DCP
    INDEX 01 18:03:48
  TRACK 10 AUDIO
    FLAGS DCP
    INDEX 01 18:53:54
  TRACK 11 AUDIO
    FLAGS DCP
    INDEX 01 19:08:38
  TRACK 12 AUDIO
    FLAGS DCP
    INDEX 01 19:32:40
  TRACK 13 AUDIO
    FLAGS DCP
    INDEX 01 19:48:66
  TRACK 14 AUDIO
    FLAGS DCP
    INDEX 01 20:09:51
  TRACK 15 AUDIO
    FLAGS DCP
    INDEX 01 20:22:37
  TRACK 16 AUDIO
    FLAGS DCP
    INDEX 01 20:54:56
  TRACK 17 AUDIO
    FLAGS DCP
    INDEX 01 21:38:56
  TRACK 18 AUDIO
    FLAGS DCP
    INDEX 01 24:42:68
  TRACK 19 AUDIO
    FLAGS DCP
    INDEX 01 27:51:45
  TRACK 20 AUDIO
    FLAGS DCP
    INDEX 01 28:15:47
  TRACK 21 AUDIO
    FLAGS DCP
    INDEX 01 28:31:73
  TRACK 22 AUDIO
    FLAGS DCP
    INDEX 01 31:37:57
  TRACK 23 AUDIO
    FLAGS DCP
    INDEX 01 34:42:41
  TRACK 24 AUDIO
    FLAGS DCP
    INDEX 01 35:06:43
  TRACK 25 AUDIO
    FLAGS DCP
    INDEX 01 35:22:69
  TRACK 26 AUDIO
    FLAGS DCP
    INDEX 01 38:26:63
  TRACK 27 AUDIO
    FLAGS DCP
    INDEX 01 41:32:16
  TRACK 28 AUDIO
    FLAGS DCP
    INDEX 01 41:56:18
  TRACK 29 AUDIO
    FLAGS DCP
    INDEX 01 42:12:44
  TRACK 30 AUDIO
    FLAGS DCP
    INDEX 01 45:19:31
  TRACK 31 AUDIO
    FLAGS DCP
    INDEX 01 48:25:11
  TRACK 32 AUDIO
    FLAGS DCP
    INDEX 01 48:49:13
  TRACK 33 AUDIO
    FLAGS DCP
    INDEX 01 49:05:39
  TRACK 34 AUDIO
    FLAGS DCP
    INDEX 01 52:08:11
  TRACK 35 AUDIO
    FLAGS DCP
    INDEX 01 52:51:73
  TRACK 36 AUDIO
    FLAGS DCP
    INDEX 01 53:11:06
  TRACK 37 AUDIO
    FLAGS DCP
    INDEX 01 53:32:32
  TRACK 38 AUDIO
    FLAGS DCP
    INDEX 01 56:38:01
  TRACK 39 AUDIO
    FLAGS DCP
    INDEX 01 56:52:30
  TRACK 40 AUDIO
    FLAGS DCP
    INDEX 01 58:11:45
  TRACK 41 AUDIO
    FLAGS DCP
    INDEX 01 59:43:56
  TRACK 42 AUDIO
    FLAGS DCP
    INDEX 01 63:54:44
  TRACK 43 AUDIO
    FLAGS DCP
    INDEX 01 68:05:60
  TRACK 44 AUDIO
    FLAGS DCP
    INDEX 01 69:11:10
  TRACK 45 AUDIO
    FLAGS DCP
    INDEX 01 70:06:65
  TRACK 46 AUDIO
    FLAGS DCP
    INDEX 01 71:12:14
